<svg t="1650271157602" class="icon" viewBox="0 0 1024 1024" version="1.1" xmlns="http://www.w3.org/2000/svg" p-id="1330" width="200" height="200"><path d="M499.3 759.5V466.7l24.2-81.3h363.6l24.2 81.3v292.8h-412z m366.5-341.6H544.9l-12.8 48.8h346.5l-12.8-48.8z m21.3 81.3H523.5v97.6h363.6v-97.6z m0 130.2H523.5V727h363.6v-97.6z m-45.5 65h-27.9v-32.5h27.9v32.5z m0-130.1h-27.9v-32.5h27.9v32.5z m-618-148.7h-0.2c-4.6 0-8.3-3.7-8.4-8.4l-2.2-109.9c-0.1-2.3 0.8-4.5 2.4-6.2 1.6-1.6 3.8-2.6 6-2.6h72.1c4.7 0 8.4 3.8 8.4 8.5s-3.8 8.6-8.4 8.6h-63.5l2.1 101.1c0.1 4.9-3.6 8.8-8.3 8.9z m518.4-53c-8.9 0-16-7.5-15.7-16.5 1.4-38.6-0.3-69.4-1.6-86.9l-278.2-81-278.2 81c-2.8 35.9-6.6 127.7 16.1 227 37.3 162.6 125.4 269.7 262.1 318.5 16.9-6 33.1-13 48.5-20.8 2.2-1.1 4.6-1.7 7-1.7 16.4 0 21.5 22.5 6.8 29.7-16.1 7.9-32.8 14.9-50.3 20.9-10 4-17.3 2.7-24 0-80.6-27.9-146.4-75.5-195.6-141.8-39.8-53.5-68.6-119-85.8-194.6-28.9-127.3-14.7-238.7-14.1-243.3 1.2-9.3 7.5-17.1 16.2-20.3l275.1-81.2c9.2-3.7 20.5-4.3 32.4 0l275.1 81.2c8.7 3.2 14.9 11 16.2 20.3 0.3 2.7 5 39.5 3.8 94-0.3 8.6-7.3 15.5-15.8 15.5z" fill="" p-id="1331"></path></svg>